<svg width="224" height="224" viewBox="0 0 224 224" fill="none" xmlns="http://www.w3.org/2000/svg">
<g clip-path="url(#clip0_172_211)">
<path d="M67.3929 207.268V223.783H60.9901V220.563H63.1771L63.286 210.093V209.728C63.286 209.619 63.2167 209.58 63.0683 209.58C62.9594 209.58 62.8506 209.649 62.5537 210.093L54.0826 222.469C53.3898 223.486 52.7763 223.99 51.3215 223.99C48.8475 223.99 48.5209 222.281 48.5209 221.264V204.523H54.9237V207.742H52.7268L52.5882 218.212C52.5882 218.538 52.5882 218.716 52.8752 218.716C53.1325 218.716 53.2414 218.459 53.3799 218.212L61.9698 205.609C62.7318 204.483 63.7115 204.305 64.5923 204.305C65.1762 204.305 67.3929 204.374 67.3929 207.249M83.0289 212.227H73.8254V207.742H75.9729V204.523H69.5701V223.763H73.8254V215.486H83.0289V220.543H80.8814V223.763H87.2842V204.523H83.0289V212.217V212.227ZM89.4614 223.773H93.7168V204.532H89.4614V223.773ZM98.8826 213.856C98.8826 213.244 99.4664 212.622 99.793 212.296L107.106 204.523H102.049L95.9038 211.348C95.3595 211.96 94.5579 212.869 94.5579 213.856C94.5579 214.844 95.2111 215.634 95.6465 216.108L102.663 223.773H107.789L99.5654 215.209C99.2784 214.913 98.8727 214.261 98.8727 213.866M123.277 206.024C124.118 206.863 124.692 208.384 124.692 210.567V220.553C124.692 221.244 124.623 222.331 123.93 223.022C123.237 223.714 122.188 223.783 121.278 223.783H112.074C111.015 223.783 109.709 223.822 108.581 222.835C107.017 221.452 106.908 219.062 106.908 217.61C106.908 215.901 107.086 214.192 108.541 212.928C109.739 211.871 111.055 211.802 112.074 211.802H120.436V210.459C120.436 209.876 120.367 209.224 119.892 208.641C119.308 207.91 118.507 207.802 117.824 207.802H108.333V204.532H119.279C120.911 204.532 122.406 205.115 123.277 206.024ZM120.436 219.496V215.071H113.341C113.054 215.071 112.252 215.111 111.777 215.723C111.629 215.901 111.302 216.375 111.302 217.797C111.302 218.38 111.342 219.397 111.886 219.941C112.183 220.227 112.727 220.523 113.272 220.523H119.199C119.783 220.671 120.654 220.089 120.436 219.506M135.716 204.335C134.548 204.335 133.42 204.809 132.876 205.935L125.058 223.793H129.422L135.35 208.947C135.459 208.77 135.528 208.404 135.716 208.404C135.904 208.404 135.973 208.77 136.082 208.947L142.01 223.793H146.374L138.556 205.935C138.012 204.809 136.884 204.335 135.716 204.335ZM163.287 213.303C164.455 214.646 164.563 216.464 164.563 218.024C164.563 219.328 164.455 221.511 163.109 222.785C161.981 223.763 160.595 223.802 159.398 223.802H149.61C148.918 223.802 148.156 223.802 147.463 223.111C146.74 222.42 146.74 221.62 146.74 220.859V204.562H150.996V211.861H159.695C160.892 211.861 162.238 212.118 163.297 213.313M160.17 217.777C160.17 217.234 160.209 216.326 159.665 215.743C159.121 215.16 158.388 215.13 157.913 215.13H151.006V219.2C151.006 219.486 150.966 219.96 151.263 220.257C151.52 220.513 151.877 220.543 152.213 220.543H157.775C158.388 220.543 159.121 220.504 159.665 219.931C160.14 219.387 160.17 218.479 160.17 217.787M179.705 212.266H170.501V207.782H172.649V204.562H166.246V223.802H170.501V215.526H179.705V220.583H177.557V223.802H183.96V204.562H179.705V212.256V212.266ZM202.001 206.054C202.842 206.893 203.416 208.414 203.416 210.597V220.583C203.416 221.274 203.347 222.36 202.654 223.052C201.961 223.743 200.912 223.812 200.002 223.812H190.798C189.739 223.812 188.433 223.852 187.305 222.864C185.741 221.481 185.632 219.091 185.632 217.639C185.632 215.931 185.811 214.222 187.265 212.958C188.463 211.901 189.779 211.832 190.798 211.832H199.161V210.488C199.161 209.906 199.091 209.254 198.616 208.671C198.032 207.94 197.231 207.831 196.548 207.831H187.058V204.562H198.003C199.636 204.562 201.13 205.145 202.001 206.054ZM199.161 219.526V215.101H192.065C191.778 215.101 190.976 215.14 190.501 215.753C190.353 215.93 190.026 216.405 190.026 217.827C190.026 218.41 190.066 219.427 190.61 219.97C190.897 220.257 191.451 220.553 191.996 220.553H197.924C198.507 220.701 199.378 220.118 199.161 219.536M222.436 205.263C221.704 204.572 220.655 204.572 220.032 204.572H210.215C208.611 204.572 207.592 205.115 206.899 205.807C205.623 207.081 205.484 208.888 205.484 210.31C205.484 211.614 205.593 213.58 206.573 214.884C207.117 215.614 208.136 216.513 210.066 216.513H211.085C211.234 216.513 211.452 216.474 211.452 216.731C211.452 216.839 211.382 216.987 211.194 217.165L204.861 223.812H209.848L215.845 216.987C216.241 216.553 216.578 216.01 216.578 215.022C216.578 213.461 215.192 213.392 214.717 213.392H212.134C211.412 213.392 210.749 213.392 210.274 212.701C210.017 212.306 209.878 211.792 209.878 210.518C209.878 209.827 209.918 209.026 210.353 208.483C210.68 208.088 211.303 207.831 211.986 207.831H217.548C217.943 207.831 218.498 207.831 218.785 208.118C219.072 208.404 219.072 209.175 219.072 209.313V223.802H223.327V208.078C223.327 207.466 223.287 206.083 222.417 205.244M38.031 196.483H40.0201C37.6549 194.241 34.5277 192.868 31.0838 192.868C29.2432 192.868 27.4915 193.263 25.8982 193.964C29.1838 197.135 31.2521 201.629 31.2521 206.626C31.2521 211.624 29.1838 216.108 25.8982 219.289C27.4915 219.99 29.2432 220.385 31.0838 220.385C34.5277 220.385 37.6549 219.002 40.0201 216.77H38.031V213.55H44.8098V216.77C41.7321 221.155 36.7346 224.02 31.0937 224.02C28.0457 224.02 25.1956 223.18 22.7216 221.718C20.2475 223.17 17.3974 224.02 14.3494 224.02C8.69869 224.02 3.70112 221.155 0.633301 216.77V213.55H7.42208V216.77H5.43295C7.79813 219.002 10.9253 220.385 14.3692 220.385C16.2099 220.385 17.9615 219.99 19.5548 219.289C16.2693 216.118 14.201 211.624 14.201 206.626C14.201 201.629 16.2693 197.144 19.5548 193.964C17.9615 193.263 16.2099 192.868 14.3692 192.868C10.9253 192.868 7.78824 194.251 5.43295 196.483H7.42208V199.703H0.643197V196.483C3.72091 192.097 8.71848 189.223 14.3692 189.223C17.4172 189.223 20.2673 190.063 22.7414 191.524C25.2154 190.073 28.0655 189.223 31.1135 189.223C36.7642 189.223 41.7618 192.097 44.8395 196.483V199.703H38.0606V196.483H38.031ZM22.7117 195.959C19.723 198.488 17.8131 202.32 17.8131 206.617C17.8131 210.913 19.723 214.755 22.7117 217.274C25.7003 214.755 27.6103 210.913 27.6103 206.617C27.6103 202.32 25.7003 198.478 22.7117 195.959Z" fill="white"/>
<path d="M157.844 152.372C156.686 151.74 155.429 151.355 154.123 151.157C149.818 150.515 145.701 146.979 144.137 146.505C143.079 146.179 142.425 149.952 144.157 151.128C147.096 153.133 152.114 156.264 148.373 162.081C145.117 167.148 135.983 165.765 130.362 161.805C125.612 158.456 123.484 152.866 122.92 152.747C121.693 152.481 122.257 153.301 121.406 167.109C120.555 180.917 108.61 188.196 99.2386 189.233C89.857 190.27 84.2656 181.015 84.0776 174.398C83.8896 167.78 89.57 164.471 88.7189 163.148C87.8679 161.824 88.2439 166.17 77.9123 166.081C67.5807 165.983 63.9884 154.17 62.8503 153.508C61.7122 152.846 59.9111 155.78 55.9725 157.953C52.0239 160.126 40.1188 160.6 37.1697 157.953C34.2207 155.306 36.2296 150.288 36.2296 149.251C36.2296 148.214 32.2513 145.28 31.0143 141.122C29.7872 136.964 31.3904 126.84 30.8263 125.902C30.2622 124.964 23.4338 125.704 21.6327 125.517C19.8316 125.329 6.57074 121.447 6.34313 108.212C6.11552 94.977 13.6762 92.33 14.1512 89.7126C14.3491 88.6459 11.2813 87.0162 7.70881 82.9567C5.27435 80.1912 4.58161 76.5663 3.0675 74.828C-1.94986 69.0598 0.405426 65.5337 1.74141 61.1187C5.71967 47.9725 18.0404 44.6637 19.0795 43.6266C20.1186 42.5895 19.9504 35.5966 29.4705 32.9397C36.2593 31.0433 44.7601 34.4509 45.9872 33.8583C47.2143 33.2558 49.916 28.8605 51.6874 27.7444C58.4069 23.4875 68.9167 24.7517 70.9058 27.8432C73.6569 32.1002 80.5249 31.6557 81.4254 31.1915C82.9 30.4211 81.4848 28.4654 80.7624 25.0085C79.0602 16.8798 85.8787 13.0969 90.807 13.4722C93.3602 13.6697 96.3984 14.2327 96.7744 12.3363C97.1505 10.44 97.3484 7.54601 100.09 6.71634C103.405 5.71877 104.068 3.40756 105.404 1.70872C106.611 0.128401 110.55 0 112.341 0C113.964 0 117.398 0.128401 118.605 1.66921C119.941 3.36805 120.604 5.66938 123.92 6.67684C126.661 7.5065 126.859 10.4103 127.235 12.2968C127.611 14.1932 130.649 13.6302 133.202 13.4327C138.131 13.0574 144.949 16.8402 143.247 24.969C142.524 28.4259 141.109 30.3717 142.584 31.152C143.484 31.6261 150.352 32.0607 153.103 27.8037C155.093 24.7122 165.612 23.4578 172.322 27.7049C174.093 28.821 176.785 33.2262 178.022 33.8188C179.249 34.4213 187.75 31.0137 194.539 32.9002C204.059 35.5472 203.891 42.55 204.93 43.5871C205.969 44.6242 218.29 47.933 222.268 61.0792C223.604 65.4942 225.959 69.0203 220.942 74.7885C219.428 76.5268 218.735 80.1517 216.3 82.9172C212.728 86.9668 209.66 88.5965 209.858 89.6731C210.333 92.2806 217.894 94.9276 217.666 108.173C217.438 121.408 204.168 125.289 202.377 125.477C200.575 125.665 193.757 124.924 193.183 125.862C192.619 126.801 194.222 136.925 192.995 141.083C191.768 145.241 187.78 148.174 187.78 149.212C187.78 150.249 189.789 155.266 186.84 157.913C183.89 160.56 171.985 160.086 168.037 157.913L157.844 152.362V152.372ZM21.9494 68.1808C26.6204 69.9191 40.9303 69.3067 43.8793 70.65C47.5112 72.3093 51.4202 75.9342 52.4593 75.2724C53.5479 74.5811 47.442 65.3461 45.7299 62.7879C44.0278 60.2397 33.5081 48.7923 24.9776 49.1676C16.4471 49.5429 12.4689 54.6493 9.44064 59.0051C6.41241 63.3608 5.83843 66.5708 6.6895 67.0449C7.54057 67.519 9.20313 66.0967 10.6084 65.8202C13.9236 65.1485 17.7732 66.64 21.9494 68.1808ZM30.4106 89.6138C34.9431 90.2657 49.0451 86.0482 52.588 86.0482C56.1308 86.0482 60.7919 88.5965 61.5539 87.431C62.0388 86.6804 57.8923 83.4012 54.1021 80.2406C50.3118 77.0898 41.6626 73.8403 35.8832 73.5538C31.4497 73.3366 23.5328 76.5169 19.1092 76.7738C14.6856 77.0305 10.0938 72.013 9.16354 72.5859C7.55047 73.5637 12.3501 87.026 30.4205 89.6039M52.1624 100.933C52.3505 100.33 51.4202 100.034 51.2223 100.627C50.8759 101.604 50.2723 102.582 49.6488 103.491C45.2054 109.625 38.8323 115.245 31.4003 117.032C25.4131 118.445 17.9513 115.956 15.2794 110.188C13.0231 104.439 16.5164 97.2191 22.0286 94.7103C27.8079 91.9942 35.428 96.5672 32.7164 103.274C32.1128 105.002 30.6778 106.77 28.8668 107.037C27.2043 107.205 24.9578 107.047 24.7599 104.913C24.7005 104.182 24.8985 103.205 25.0964 101.881C25.1855 101.476 24.7995 101.091 24.3938 101.18C22.1473 101.565 20.4452 103.935 20.5837 106.336C20.752 111.076 26.7985 112.795 30.381 110.474C32.8154 108.963 34.0722 106.573 35.0223 104.084C36.9718 98.8982 33.8842 93.3078 28.5304 92.0534C23.612 90.6015 18.2779 93.1498 15.3487 97.1104C11.5287 101.93 10.5391 109.644 15.2398 114.247C19.4952 118.603 25.9673 120.776 31.8951 119.027C40.1683 116.785 48.9957 108.765 52.1624 100.923M47.0461 137.478C48.6988 135.7 50.2822 133.823 51.153 131.601C53.2708 127.206 52.014 121.625 54.7552 117.615C59.6538 110.672 66.9671 105.338 74.7851 102C75.3789 101.772 75.0721 100.913 74.4882 101.061C69.837 102.296 65.3046 103.945 60.8018 105.901C56.1803 108.024 51.3213 110.346 47.6894 114.069C41.6527 119.857 36.0713 125.191 37.3578 134.208C37.5062 136.786 37.7437 139.354 39.4953 142.426C39.6834 142.752 40.0891 142.89 40.4355 142.732C43.6715 141.3 45.3836 139.384 47.056 137.478M31.6576 44.5946C33.1519 45.7798 36.6452 51.7751 45.9278 57.8297C49.8566 60.3878 48.966 64.9411 50.4306 65.1485C51.9447 65.3658 52.0932 55.2321 50.8561 50.2244C49.629 45.2069 45.3143 38.8758 39.3964 38.1153C34.6363 37.5128 32.4295 39.2017 31.1034 39.6758C29.7773 40.1499 26.9371 40.7129 26.8876 41.6117C26.7886 43.2612 28.9757 42.4611 31.6576 44.5946ZM172.361 65.1387C173.826 64.9312 172.935 60.3878 176.864 57.8198C186.147 51.7652 189.65 45.7798 191.134 44.5847C193.826 42.4512 196.003 43.2414 195.904 41.6018C195.855 40.703 193.015 40.14 191.689 39.6659C190.363 39.1918 188.156 37.493 183.396 38.1054C177.478 38.8659 173.163 45.197 171.936 50.2146C170.709 55.2222 170.847 65.356 172.361 65.1387ZM89.9856 26.2234C91.5294 26.095 93.1623 24.969 92.7368 23.606C92.0539 21.4133 90.2132 21.7195 89.9263 22.2825C89.5997 22.9343 90.906 23.3689 90.9851 24.0899C91.1336 25.4727 89.5601 25.4826 88.996 25.2949C87.8579 24.9196 87.0069 24.2974 87.3631 22.4109C87.7095 20.5737 89.8372 20.1984 90.8763 20.3762C91.9451 20.5639 93.2712 21.1269 96.3885 23.9418C99.6344 26.8851 102.029 29.3346 105.661 29.305C107.819 29.2852 109.54 28.6926 110.698 27.6753C110.471 28.179 110.105 28.7618 109.471 29.305C108.561 30.0754 108.472 32.0014 109.758 33.9373C111.035 35.8732 111.708 35.4485 111.609 34.9349C111.5 34.3521 110.134 33.8583 110.718 32.4755C111.084 31.6162 112.133 31.4285 112.361 31.3989C112.589 31.4285 113.637 31.6162 113.994 32.4755C114.578 33.8583 113.222 34.3521 113.103 34.9349C113.004 35.4583 113.667 35.8831 114.954 33.9373C116.23 32.0014 116.151 30.0754 115.241 29.305C114.597 28.7618 114.231 28.179 114.014 27.6753C115.171 28.6926 116.893 29.2852 119.051 29.305C122.683 29.3346 125.077 26.8753 128.323 23.9418C131.441 21.117 132.757 20.5639 133.836 20.3762C134.875 20.1885 137.012 20.5639 137.349 22.4109C137.705 24.3072 136.854 24.9196 135.716 25.2949C135.142 25.4826 133.578 25.4727 133.727 24.0899C133.806 23.3689 135.112 22.9442 134.786 22.2825C134.499 21.7195 132.658 21.4133 131.975 23.606C131.55 24.969 133.173 26.095 134.726 26.2234C136.132 26.3419 139.12 25.4135 138.14 21.996C137.527 19.8527 135.419 19.4675 133.845 19.5959C132.341 19.7243 130.065 21.2651 128.135 23.0627C126.631 24.4653 122.712 28.1494 119.288 28.1099C114.954 28.0506 113.875 25.3542 113.915 23.5171C113.974 20.9589 116.141 19.9021 116.141 19.9021C116.141 19.9021 115.142 22.2627 115.696 24.1591C116.28 26.1641 117.279 26.8555 118.991 26.8851C120.733 26.9148 122.237 25.2357 122.435 24.3961C122.782 22.9146 122.89 22.48 120.416 23.4381C118.952 24.0011 120.387 25.7789 118.398 25.8283C117.754 25.848 116.428 24.6924 116.547 22.7763C116.686 20.5145 117.794 19.4083 120.426 19.2601C123.019 19.112 125.018 20.9787 125.622 21.4528C126.225 21.9269 127.156 21.9071 126.552 21.1565C125.948 20.396 123.939 18.8552 122.178 18.1934C121.307 17.8675 120.288 17.7094 119.239 17.739C117.329 14.5982 115.627 13.7784 115.686 12.9685C115.785 11.8326 116.379 12.9092 117.042 13.3734C117.626 13.7883 118.457 15.5167 121.02 16.6822C121.455 16.8798 121.762 16.3464 121.574 16.0205C120.466 14.0747 120.288 13.3142 120.139 12.0499C120.09 11.6351 119.852 11.2696 119.486 11.0721C116.923 9.7387 115.983 6.67684 115.053 6.67684C114.479 6.67684 114.291 8.21765 114.211 9.64981C114.132 11.0918 114.182 12.4351 114.657 13.1463C115.597 14.5488 117.725 15.8624 118.318 17.8082C117.546 17.907 116.775 18.1045 116.052 18.4206C114.35 19.1515 113.143 20.2379 112.697 21.6602C112.539 22.1738 112.44 22.6677 112.391 23.1418C112.341 22.6677 112.242 22.1738 112.084 21.6602C111.638 20.2379 110.431 19.1515 108.729 18.4206C108.007 18.1144 107.235 17.907 106.463 17.8082C107.057 15.8624 109.194 14.5488 110.124 13.1463C110.599 12.4351 110.639 11.0918 110.57 9.64981C110.491 8.21765 110.302 6.67684 109.729 6.67684C108.798 6.67684 107.858 9.7387 105.295 11.0721C104.919 11.2696 104.691 11.6351 104.642 12.0499C104.484 13.324 104.315 14.0846 103.197 16.0205C103.009 16.3464 103.316 16.8798 103.751 16.6822C106.314 15.5167 107.146 13.7883 107.729 13.3734C108.393 12.8993 108.996 11.8326 109.085 12.9685C109.155 13.7883 107.452 14.5982 105.542 17.739C104.493 17.7094 103.464 17.8675 102.603 18.1934C100.842 18.8552 98.8328 20.396 98.2291 21.1565C97.6255 21.917 98.5557 21.9269 99.1594 21.4528C99.763 20.9787 101.762 19.112 104.355 19.2601C106.997 19.4083 108.096 20.5145 108.244 22.7763C108.363 24.6924 107.037 25.8382 106.393 25.8283C104.404 25.7789 105.839 24.0011 104.375 23.4381C101.891 22.48 102.009 22.9146 102.356 24.3961C102.554 25.2357 104.058 26.9148 105.8 26.8851C107.522 26.8555 108.511 26.1641 109.095 24.1591C109.649 22.2726 108.65 19.9021 108.65 19.9021C108.65 19.9021 110.817 20.9589 110.876 23.5171C110.916 25.3542 109.837 28.0506 105.503 28.1099C102.079 28.1494 98.1599 24.4653 96.6557 23.0627C94.7259 21.2651 92.4498 19.7144 90.9456 19.5959C89.3721 19.4675 87.2642 19.8527 86.6506 21.996C85.6709 25.4135 88.6595 26.332 90.0648 26.2234M175.172 114.099C171.54 110.375 166.671 108.054 162.059 105.931C157.557 103.975 153.024 102.325 148.373 101.091C147.789 100.943 147.482 101.812 148.076 102.029C155.894 105.368 163.217 110.701 168.106 117.645C170.847 121.655 169.59 127.235 171.708 131.63C172.579 133.843 174.163 135.72 175.815 137.507C177.488 139.414 179.2 141.33 182.436 142.762C182.782 142.92 183.188 142.772 183.376 142.456C185.127 139.394 185.365 136.816 185.513 134.238C186.79 125.22 181.209 119.897 175.172 114.099ZM77.3581 36.9004V38.54C80.0993 38.54 82.1083 38.7968 83.3849 39.3104C84.6516 39.824 85.473 40.7623 85.8589 42.1352C86.235 43.5081 86.423 45.4538 86.423 47.9922V96.7055C86.423 96.7055 69.649 92.6065 62.5732 82.2653C57.0314 74.1563 60.2377 65.1387 61.6034 64.2004C65.3639 61.6225 71.1532 59.5384 75.3987 62.5904C79.1394 65.2868 81.7025 73.7514 76.0518 76.9515C71.7569 79.3911 69.1542 76.112 68.6198 73.2575C68.2833 71.4501 69.1839 70.4722 69.8964 69.9488C71.4105 68.8425 72.321 70.1562 72.6772 69.8796C72.9939 69.6327 73.1621 68.4079 71.8261 67.2326C69.174 64.9016 65.5915 67.677 64.9087 69.9784C64.0082 73.0106 65.1165 76.991 67.5807 78.4923C70.0448 79.9936 81.1681 81.7517 81.1384 69.7907C81.1384 66.3437 78.6644 61.5138 72.5585 58.9162C78.8029 58.3532 83.9787 54.6592 83.5927 49.7405C83.2067 44.8217 78.7634 44.3476 76.6258 45.1082C73.172 46.3428 72.5585 51.301 74.696 52.7332C77.7342 54.7777 79.367 52.0122 79.367 51.4393C79.367 50.8664 77.7045 52.0714 76.4773 51.2516C75.9133 50.8763 75.2502 47.607 77.2394 46.8564C79.6441 45.9378 81.4056 47.7058 81.7916 49.6022C82.1676 51.4986 79.941 55.4197 77.2888 56.1704C74.6367 56.9309 66.4921 58.6297 62.1279 61.0891C67.6203 55.2222 72.7366 49.3651 71.9845 41.424C71.2225 33.483 64.4436 31.0236 60.2575 31.0236C56.0714 31.0236 51.3312 34.2435 51.5192 40.6734C51.7072 47.1033 55.1214 48.9997 57.7736 48.9997C60.4257 48.9997 63.8894 47.6268 63.5035 42.5204C63.1274 37.414 65.9181 38.8066 64.7801 37.2757C63.642 35.7448 59.5252 38.7375 59.9012 41.5821C60.2773 44.4168 62.2961 46.4712 58.3377 47.1132C54.8344 47.6762 53.0729 43.8834 53.2411 40.0215C53.4588 35.1917 57.3876 32.5446 60.4158 32.7323C63.4441 32.92 69.8964 35.1917 69.8964 41.9969C69.8964 55.1925 57.7538 58.5507 57.2293 67.9141C56.8136 75.3811 58.7731 80.2702 63.1868 85.5741C67.1947 90.3941 72.8158 93.5547 77.5164 95.5202C76.4081 96.0141 74.1221 97.1302 69.8964 96.1919C68.0458 95.777 63.8993 90.2262 56.6355 90.2262C49.8764 90.2262 44.4929 96.5475 45.1362 97.2882C45.5815 97.792 47.8774 95.7474 50.3613 96.1721C54.4089 96.8635 54.3495 102.582 64.0181 102.138C71.3709 101.802 77.4967 97.4265 78.2785 95.8363C82.8505 97.6734 86.423 98.3648 86.423 98.3648V99.155C74.8643 101.792 64.1863 109.842 57.2788 119.61C54.8146 123.107 53.4687 127.986 53.063 131.443C52.6968 134.238 52.8948 136.757 52.8552 139.256C52.9739 144.935 48.8076 149.024 43.8991 151.78C43.4538 152.026 43.6517 152.738 44.1564 152.728C51.1134 152.955 58.1001 149.557 62.7711 143.977C67.2739 138.969 69.0453 132.253 69.2927 126.396C69.2729 124.667 69.6094 122.652 70.1735 120.845C72.3111 111.985 78.3774 104.973 86.423 100.439V102.345C86.3339 102.375 86.2251 102.434 86.1261 102.484C82.3359 104.479 79.367 107.57 76.5862 111.205C75.2205 113.042 73.8846 115.106 73.1028 117.467C72.4199 119.452 72.2517 121.615 72.1329 123.699C71.6678 131.087 71.4699 137.655 66.5218 143.927C66.215 144.263 66.4921 144.846 66.9473 144.816C71.6282 144.638 75.7945 141.132 78.229 137.3C81.376 132.174 82.989 126.356 82.5338 120.539C82.4942 120.163 82.326 119.176 82.2864 118.79C81.1978 113.556 83.0484 107.847 86.423 103.659V148.599C86.423 149.35 86.3735 150.278 86.2647 151.375C86.1657 152.471 85.8688 153.439 85.3938 154.278C84.9089 155.118 84.1271 155.533 83.0286 155.533C82.2072 155.533 81.5442 155.108 81.0494 154.249C80.5546 153.389 80.0499 152.392 79.5551 151.246C79.0602 150.1 78.4269 149.103 77.6748 148.244C76.9227 147.384 75.8935 146.96 74.5872 146.96C71.46 146.96 69.9063 148.569 69.9063 151.789C69.9063 153.468 70.3813 154.841 71.3511 155.898C72.3111 156.955 73.5085 157.735 74.9533 158.239C76.3982 158.733 77.8133 158.99 79.2285 158.99C82.3854 158.99 85.0079 158.308 87.1058 156.955C89.2038 155.602 90.8466 153.824 92.044 151.612C93.2415 149.399 94.1024 146.96 94.617 144.293C95.1316 141.616 95.3889 138.979 95.3889 136.381V48.0021C95.3889 45.4341 95.577 43.4587 95.953 42.0957C96.3291 40.7228 97.1604 39.7943 98.4469 39.3005C99.7334 38.8066 101.713 38.5498 104.394 38.5498V36.9103H77.368L77.3581 36.9004ZM194.252 92.0831C188.898 93.3374 185.81 98.9278 187.76 104.113C188.72 106.602 189.967 108.992 192.401 110.504C195.984 112.825 202.04 111.106 202.198 106.365C202.337 103.965 200.635 101.595 198.388 101.209C197.983 101.12 197.607 101.506 197.686 101.911C197.884 103.234 198.072 104.212 198.022 104.943C197.824 107.076 195.568 107.234 193.915 107.066C192.104 106.8 190.669 105.032 190.066 103.303C187.344 96.5968 194.964 92.0238 200.754 94.74C206.266 97.2487 209.759 104.459 207.503 110.217C204.831 115.985 197.369 118.474 191.382 117.062C183.95 115.274 177.577 109.644 173.133 103.521C172.51 102.602 171.906 101.634 171.56 100.656C171.362 100.064 170.432 100.36 170.62 100.962C173.786 108.815 182.614 116.835 190.887 119.067C196.815 120.825 203.287 118.642 207.542 114.286C212.253 109.684 211.253 101.97 207.433 97.1499C204.514 93.1893 199.17 90.6509 194.252 92.0929M213.322 59.0149C210.293 54.6691 206.315 49.5528 197.785 49.1775C189.254 48.8021 178.744 60.2397 177.032 62.7978C175.33 65.356 169.214 74.5909 170.303 75.2823C171.342 75.9441 175.251 72.3192 178.883 70.6599C181.832 69.3166 196.142 69.9191 200.813 68.1907C204.989 66.64 208.839 65.1584 212.154 65.8301C213.559 66.1165 215.222 67.5289 216.073 67.0548C216.924 66.5807 216.36 63.3707 213.322 59.0149ZM213.609 72.6057C212.678 72.0427 208.087 77.0503 203.663 76.7935C199.239 76.5367 191.322 73.3563 186.889 73.5736C181.11 73.86 172.46 77.0997 168.67 80.2603C164.88 83.4111 160.733 86.7001 161.218 87.4508C161.97 88.6162 166.651 86.068 170.184 86.068C173.717 86.068 187.829 90.2756 192.362 89.6336C210.432 87.0458 215.232 73.5934 213.619 72.6155M98.2687 61.5138C101.01 61.5138 103.019 61.7706 104.296 62.2842C105.562 62.7978 106.384 63.7361 106.77 65.109C107.146 66.4819 107.334 68.4277 107.334 70.9661V171.563C107.334 172.314 107.284 173.242 107.185 174.339C107.086 175.435 106.789 176.403 106.304 177.242C105.829 178.082 105.038 178.497 103.939 178.497C103.118 178.497 102.455 178.072 101.96 177.213C101.465 176.353 100.96 175.356 100.466 174.21C99.9709 173.064 99.3375 172.057 98.5854 171.208C97.8333 170.348 96.8041 169.924 95.4978 169.924C92.3805 169.924 90.8169 171.533 90.8169 174.753C90.8169 176.432 91.2919 177.805 92.2618 178.862C93.2217 179.919 94.4191 180.699 95.864 181.203C97.3088 181.697 98.724 181.954 100.139 181.954C103.296 181.954 105.918 181.282 108.016 179.929C110.114 178.576 111.757 176.798 112.955 174.585C114.152 172.373 115.013 169.933 115.528 167.267C116.042 164.59 116.3 161.963 116.3 159.355V70.9463C116.3 68.3783 116.488 66.4029 116.864 65.0399C117.24 63.667 118.071 62.7386 119.357 62.2447C120.644 61.7509 122.623 61.4941 125.305 61.4941V59.8545H98.2786V61.4941L98.2687 61.5138ZM178.883 151.799C173.965 149.044 169.798 144.955 169.917 139.275C169.877 136.776 170.075 134.268 169.709 131.463C169.303 128.016 167.958 123.126 165.493 119.63C158.863 110.257 148.769 102.454 137.745 99.5105V98.0586C139.18 97.6932 141.634 97.0018 144.494 95.8462C145.276 97.4364 151.401 101.812 158.754 102.148C168.423 102.592 168.363 96.8734 172.411 96.182C174.895 95.7573 177.191 97.8018 177.636 97.2981C178.289 96.5573 172.896 90.2361 166.137 90.2361C158.873 90.2361 154.726 95.7869 152.876 96.2018C148.64 97.1499 146.354 96.0339 145.246 95.5301C149.947 93.5547 155.568 90.404 159.576 85.584C163.989 80.2702 165.949 75.391 165.533 67.924C165.009 58.5606 152.876 55.1925 152.876 42.0068C152.876 35.1917 159.318 32.9298 162.346 32.7422C165.375 32.5545 169.313 35.2015 169.531 40.0314C169.699 43.8834 167.938 47.686 164.435 47.1231C160.476 46.4811 162.495 44.4266 162.871 41.592C163.247 38.7573 159.13 35.7547 157.992 37.2856C156.854 38.8165 159.655 37.4239 159.269 42.5303C158.893 47.6367 162.346 49.0096 164.999 49.0096C167.651 49.0096 171.065 47.1132 171.253 40.6833C171.441 34.2534 166.701 31.0335 162.515 31.0335C158.329 31.0335 151.54 33.4928 150.788 41.4339C150.026 49.375 155.142 55.2419 160.644 61.099C156.29 58.6396 148.136 56.9408 145.483 56.1802C142.831 55.4197 140.605 51.4986 140.981 49.6121C141.357 47.7256 143.118 45.9576 145.533 46.8663C147.522 47.6268 146.859 50.8862 146.295 51.2615C145.068 52.0813 143.405 50.8862 143.405 51.4492C143.405 52.0122 145.048 54.7876 148.076 52.7431C150.214 51.301 149.61 46.3428 146.146 45.118C144.019 44.3575 139.565 44.8316 139.18 49.7503C138.803 54.6691 143.969 58.3532 150.214 58.926C144.098 61.5237 141.634 66.3535 141.634 69.8006C141.604 81.7616 152.727 79.9936 155.192 78.5022C157.656 77.0009 158.764 73.0304 157.864 69.9883C157.181 67.6968 153.598 64.9115 150.946 67.2425C149.61 68.4178 149.778 69.6426 150.095 69.8895C150.451 70.1759 151.362 68.8524 152.876 69.9586C153.598 70.4821 154.489 71.4599 154.152 73.2674C153.618 76.1219 151.015 79.401 146.72 76.9614C141.07 73.7613 143.633 65.2967 147.374 62.6003C151.619 59.5384 157.408 61.6225 161.169 64.2102C162.535 65.1485 165.741 74.1662 160.199 82.2752C154.34 90.8484 141.842 95.1252 137.735 96.34V33.8188H135.35L120.377 39.8339L121.089 41.7401C123.88 40.8413 125.79 40.8611 126.691 41.4932C127.73 42.2241 128.779 44.9699 128.779 50.2244V140.214C128.779 142.821 128.511 146.11 128.897 148.234C129.382 150.91 130.164 152.52 131.747 154.209C135.172 157.874 139.625 158.802 142.782 158.802C142.782 158.387 142.782 158.17 142.782 157.38C141.535 157.222 139.763 156.402 138.893 155.572C137.893 154.624 137.745 152.323 137.745 150.594V105.595C140.209 109.516 141.416 114.316 140.486 118.781C140.446 119.176 140.278 120.153 140.238 120.529C139.773 126.346 141.386 132.164 144.543 137.29C146.978 141.122 151.144 144.629 155.825 144.806C156.28 144.836 156.557 144.253 156.25 143.917C151.302 137.646 151.104 131.077 150.639 123.689C150.53 121.605 150.352 119.452 149.669 117.457C148.888 115.106 147.552 113.032 146.176 111.195C143.662 107.916 141 105.091 137.725 103.106V101.249C145.078 105.792 150.57 112.499 152.579 120.835C153.143 122.642 153.48 124.657 153.46 126.386C153.707 132.243 155.479 138.959 159.981 143.967C164.662 149.547 171.639 152.935 178.596 152.718C179.101 152.718 179.299 152.007 178.853 151.77" fill="white"/>
</g>
<defs>
<clipPath id="clip0_172_211">
<rect width="224" height="224" fill="white"/>
</clipPath>
</defs>
</svg>
