<svg width="25" height="25" viewBox="0 0 25 25" fill="none" xmlns="http://www.w3.org/2000/svg">
<path d="M4.80679 0.0420933C2.50585 0.381577 0.714286 2.01461 0.128806 4.29149L0 4.80657V12.5035V20.2004L0.128806 20.7155C0.655738 22.7699 2.13115 24.2801 4.16862 24.842L4.74239 25H12.4707H20.1991L20.7143 24.8712C22.8162 24.3327 24.3326 22.8168 24.8712 20.7155L25 20.2004V12.5035V4.80657L24.8712 4.29149C24.3384 2.20777 22.8396 0.697647 20.7436 0.141596L20.2576 0.0128269L12.7049 0.00112152C8.54801 -0.00473213 4.99414 0.0128269 4.80679 0.0420933ZM21.2822 2.58822C21.8911 2.76967 22.4532 3.52473 22.4532 4.15687C22.4532 5.05826 21.6686 5.83088 20.7611 5.83088C19.1393 5.82502 18.4778 3.70032 19.8185 2.81064C20.3044 2.48872 20.7318 2.42433 21.2822 2.58822ZM13.8759 4.57244C15.7494 4.90022 17.5585 5.9655 18.7412 7.43464C19.6311 8.53504 20.1639 9.69982 20.4391 11.128C20.5796 11.8479 20.5796 13.1649 20.4333 13.9082C19.8009 17.2563 17.2541 19.8024 13.9052 20.4345C13.1616 20.5809 11.8443 20.5809 11.1241 20.4404C8.92857 20.019 7.18384 18.901 5.88993 17.0807C4.5082 15.1491 4.08665 12.5503 4.77752 10.2032C5.38056 8.16044 6.88525 6.35766 8.80562 5.36847C10.4274 4.53732 12.1253 4.26808 13.8759 4.57244Z" fill="white"/>
<path d="M11.8268 7.93806C9.98837 8.23072 8.51882 9.54183 8.03872 11.327C7.94505 11.6665 7.91577 11.9475 7.91577 12.5035C7.91577 13.3405 8.03287 13.879 8.34317 14.4995C8.96964 15.7462 9.98837 16.589 11.3116 16.9636C11.9556 17.1451 13.0446 17.1451 13.6886 16.9636C15.3104 16.5071 16.5048 15.3131 16.9614 13.6976C17.1429 13.0479 17.1429 11.965 16.9614 11.3153C16.3994 9.33697 14.7483 8.01415 12.7109 7.91465C12.4181 7.89709 12.02 7.90879 11.8268 7.93806Z" fill="white"/>
</svg>
