<svg width="100" height="100" viewBox="0 0 100 100" fill="none" xmlns="http://www.w3.org/2000/svg">
<g clip-path="url(#clip0_172_293)">
<path d="M30.0861 92.5305V99.903H27.2277V98.4655H28.2041L28.2527 93.7916V93.6285C28.2527 93.5799 28.2217 93.5623 28.1555 93.5623C28.1069 93.5623 28.0583 93.5932 27.9257 93.7916L24.144 99.3165C23.8347 99.7707 23.5608 99.9956 22.9114 99.9956C21.8069 99.9956 21.6611 99.2328 21.6611 98.7786V91.3047H24.5195V92.7422H23.5387L23.4769 97.4161C23.4769 97.5616 23.4769 97.641 23.605 97.641C23.7199 97.641 23.7685 97.5263 23.8303 97.4161L27.6651 91.7897C28.0053 91.2871 28.4426 91.2077 28.8358 91.2077C29.0965 91.2077 30.0861 91.2386 30.0861 92.5217M37.0665 94.744H32.9578V92.7422H33.9165V91.3047H31.0581V99.8942H32.9578V96.1991H37.0665V98.4567H36.1078V99.8942H38.9662V91.3047H37.0665V94.7396V94.744ZM39.9381 99.8986H41.8378V91.3091H39.9381V99.8986ZM44.144 95.4716C44.144 95.1982 44.4046 94.9204 44.5504 94.7749L47.8153 91.3047H45.5577L42.8142 94.3516C42.5712 94.625 42.2134 95.0306 42.2134 95.4716C42.2134 95.9125 42.5049 96.2653 42.6993 96.4769L45.8316 99.8986H48.1201L44.4488 96.0756C44.3207 95.9434 44.1396 95.6524 44.1396 95.476M55.0342 91.9749C55.4097 92.3497 55.666 93.0288 55.666 94.0032V98.4611C55.666 98.7698 55.635 99.2548 55.3258 99.5635C55.0165 99.8721 54.5482 99.903 54.1418 99.903H50.0331C49.5604 99.903 48.9772 99.9206 48.4736 99.4797C47.7755 98.8624 47.7269 97.7953 47.7269 97.1471C47.7269 96.3843 47.8065 95.6215 48.4559 95.0571C48.9905 94.5853 49.5781 94.5544 50.0331 94.5544H53.7663V93.9547C53.7663 93.6946 53.7353 93.4036 53.5233 93.1434C53.2626 92.8171 52.9048 92.7686 52.5999 92.7686H48.3631V91.3091H53.2494C53.9783 91.3091 54.6454 91.5693 55.0342 91.9749ZM53.7663 97.9893V96.0139H50.5986C50.4705 96.0139 50.1126 96.0316 49.9006 96.3049C49.8343 96.3843 49.6885 96.596 49.6885 97.2309C49.6885 97.4911 49.7062 97.9452 49.9492 98.1877C50.0817 98.3156 50.3247 98.4479 50.5677 98.4479H53.214C53.4747 98.514 53.8634 98.2539 53.7663 97.9937M60.5875 91.2209C60.0662 91.2209 59.5626 91.4326 59.3196 91.9353L55.8294 99.9074H57.7777L60.4241 93.2801C60.4727 93.2007 60.5036 93.0376 60.5875 93.0376C60.6715 93.0376 60.7024 93.2007 60.751 93.2801L63.3974 99.9074H65.3457L61.8555 91.9353C61.6125 91.4326 61.1089 91.2209 60.5875 91.2209ZM72.8959 95.2246C73.4172 95.8243 73.4658 96.6356 73.4658 97.3323C73.4658 97.9144 73.4172 98.8888 72.8164 99.4576C72.3128 99.8942 71.6942 99.9118 71.1597 99.9118H66.7903C66.4811 99.9118 66.1409 99.9118 65.8316 99.6031C65.5091 99.2945 65.5091 98.9373 65.5091 98.5978V91.3224H67.4088V94.5809H71.2922C71.8268 94.5809 72.4276 94.6955 72.9003 95.2291M71.5043 97.2221C71.5043 96.9796 71.5219 96.5739 71.279 96.3138C71.036 96.0536 70.709 96.0404 70.497 96.0404H67.4133V97.857C67.4133 97.9849 67.3956 98.1966 67.5281 98.3288C67.643 98.4435 67.802 98.4567 67.9522 98.4567H70.4351C70.709 98.4567 71.036 98.4391 71.279 98.1833C71.491 97.9408 71.5043 97.5351 71.5043 97.2265M80.2253 94.7617H76.1166V92.7598H77.0753V91.3224H74.2169V99.9118H76.1166V96.2168H80.2253V98.4743H79.2666V99.9118H82.125V91.3224H80.2253V94.7572V94.7617ZM90.1789 91.9882C90.5544 92.363 90.8107 93.042 90.8107 94.0165V98.4743C90.8107 98.783 90.7797 99.268 90.4705 99.5767C90.1612 99.8853 89.6929 99.9162 89.2865 99.9162H85.1778C84.7051 99.9162 84.1219 99.9338 83.6183 99.4929C82.9202 98.8756 82.8716 97.8085 82.8716 97.1604C82.8716 96.3975 82.9511 95.6347 83.6006 95.0703C84.1351 94.5985 84.7227 94.5676 85.1778 94.5676H88.9109V93.968C88.9109 93.7078 88.88 93.4168 88.668 93.1567C88.4073 92.8304 88.0494 92.7819 87.7446 92.7819H83.5078V91.3224H88.394C89.123 91.3224 89.7901 91.5825 90.1789 91.9882ZM88.9109 98.0025V96.0271H85.7433C85.6152 96.0271 85.2573 96.0448 85.0452 96.3182C84.979 96.3975 84.8332 96.6092 84.8332 97.2441C84.8332 97.5043 84.8509 97.9585 85.0938 98.201C85.222 98.3288 85.4694 98.4611 85.7123 98.4611H88.3587C88.6194 98.5273 89.0081 98.2671 88.9109 98.007M99.3019 91.6354C98.975 91.3268 98.5067 91.3268 98.2284 91.3268H93.8458C93.1301 91.3268 92.675 91.5693 92.3658 91.8779C91.7959 92.4467 91.734 93.2537 91.734 93.8886C91.734 94.4706 91.7826 95.3481 92.22 95.9301C92.463 96.2564 92.918 96.6577 93.7795 96.6577H94.2346C94.3008 96.6577 94.398 96.64 94.398 96.7547C94.398 96.8032 94.3671 96.8693 94.2831 96.9487L91.4557 99.9162H93.6823L96.3596 96.8693C96.5363 96.6753 96.6865 96.4328 96.6865 95.9919C96.6865 95.2952 96.068 95.2643 95.8559 95.2643H94.7029C94.3803 95.2643 94.0843 95.2643 93.8723 94.9557C93.7574 94.7793 93.6956 94.55 93.6956 93.9812C93.6956 93.6725 93.7132 93.3154 93.9076 93.0729C94.0534 92.8965 94.3317 92.7819 94.6366 92.7819H97.1195C97.2962 92.7819 97.5436 92.7819 97.6717 92.9097C97.7998 93.0376 97.7998 93.3815 97.7998 93.4433V99.9118H99.6995V92.8921C99.6995 92.6187 99.6819 92.0014 99.2931 91.6266M16.9781 87.7155H17.8661C16.8102 86.7146 15.4141 86.1017 13.8767 86.1017C13.055 86.1017 12.273 86.278 11.5617 86.5911C13.0285 88.0065 13.9518 90.0128 13.9518 92.2439C13.9518 94.475 13.0285 96.4769 11.5617 97.8967C12.273 98.2098 13.055 98.3862 13.8767 98.3862C15.4141 98.3862 16.8102 97.7688 17.8661 96.7723H16.9781V95.3349H20.0044V96.7723C18.6304 98.7301 16.3993 100.009 13.8811 100.009C12.5204 100.009 11.248 99.634 10.1435 98.9814C9.03906 99.6296 7.7667 100.009 6.40597 100.009C3.88333 100.009 1.65228 98.7301 0.282715 96.7723V95.3349H3.31342V96.7723H2.42541C3.4813 97.7688 4.87737 98.3862 6.41481 98.3862C7.23655 98.3862 8.01852 98.2098 8.72981 97.8967C7.26305 96.4813 6.33971 94.475 6.33971 92.2439C6.33971 90.0128 7.26305 88.0109 8.72981 86.5911C8.01852 86.278 7.23655 86.1017 6.41481 86.1017C4.87737 86.1017 3.47688 86.719 2.42541 87.7155H3.31342V89.1529H0.287133V87.7155C1.66111 85.7577 3.89217 84.4746 6.41481 84.4746C7.77554 84.4746 9.0479 84.8494 10.1524 85.502C11.2569 84.8538 12.5292 84.4746 13.89 84.4746C16.4126 84.4746 18.6437 85.7577 20.0176 87.7155V89.1529H16.9914V87.7155H16.9781ZM10.1391 87.4818C8.80492 88.6106 7.95225 90.3214 7.95225 92.2395C7.95225 94.1576 8.80492 95.8728 10.1391 96.9972C11.4733 95.8728 12.326 94.1576 12.326 92.2395C12.326 90.3214 11.4733 88.6062 10.1391 87.4818Z" fill="white"/>
<path d="M70.4663 68.0233C69.9494 67.7411 69.3883 67.5691 68.8052 67.4809C66.8834 67.1943 65.0455 65.6158 64.3475 65.4041C63.8748 65.2586 63.5832 66.943 64.3563 67.4677C65.6684 68.3628 67.9083 69.7606 66.2383 72.3577C64.7848 74.6197 60.7071 74.0024 58.1977 72.2342C56.0771 70.7394 55.1272 68.2437 54.8754 68.1908C54.3276 68.0718 54.5794 68.4378 54.1995 74.6021C53.8195 80.7663 48.4871 84.016 44.3033 84.479C40.1151 84.942 37.619 80.8104 37.535 77.8562C37.4511 74.9019 39.987 73.4248 39.607 72.8339C39.2271 72.243 39.395 74.1832 34.7826 74.1435C30.1703 74.0994 28.5666 68.8258 28.0585 68.5304C27.5505 68.2349 26.7464 69.5445 24.9881 70.5146C23.2253 71.4846 17.9105 71.6963 16.594 70.5146C15.2775 69.3329 16.1743 67.0929 16.1743 66.6299C16.1743 66.1669 14.3983 64.8574 13.846 63.001C13.2982 61.1447 14.0139 56.6251 13.7621 56.2062C13.5103 55.7873 10.4619 56.118 9.65784 56.0342C8.85377 55.9504 2.93373 54.2176 2.83212 48.309C2.73051 42.4005 6.10581 41.2188 6.31787 40.0503C6.40623 39.5741 5.03667 38.8465 3.4418 37.0343C2.35498 35.7996 2.04573 34.1814 1.36979 33.4054C-0.870109 30.8303 0.18136 29.2561 0.777782 27.2852C2.55379 21.4163 8.05412 19.9391 8.51801 19.4762C8.98189 19.0132 8.90679 15.8914 13.1568 14.7052C16.1875 13.8586 19.9826 15.3799 20.5304 15.1153C21.0782 14.8463 22.2843 12.8842 23.0751 12.3859C26.0749 10.4855 30.7667 11.0499 31.6547 12.43C32.8829 14.3304 35.949 14.132 36.351 13.9248C37.0093 13.5808 36.3775 12.7078 36.055 11.1645C35.2951 7.53561 38.3391 5.84682 40.5392 6.01437C41.679 6.10256 43.0353 6.3539 43.2032 5.5073C43.3711 4.6607 43.4595 3.36876 44.6832 2.99837C46.1632 2.55302 46.4593 1.52123 47.0557 0.76282C47.5947 0.0573217 49.353 0 50.1526 0C50.8772 0 52.4102 0.0573218 52.9492 0.745183C53.5456 1.50359 53.8416 2.53098 55.3216 2.98073C56.5454 3.35112 56.6338 4.64747 56.8016 5.48966C56.9695 6.33626 58.3258 6.08492 59.4657 5.99674C61.6658 5.82918 64.7097 7.51797 63.9499 11.1469C63.6273 12.6902 62.9956 13.5588 63.6539 13.9071C64.0559 14.1188 67.1219 14.3128 68.3501 12.4124C69.2381 11.0322 73.9344 10.4722 76.9298 12.3683C77.7206 12.8665 78.9222 14.8331 79.4745 15.0977C80.0223 15.3666 83.8173 13.8454 86.848 14.6876C91.0981 15.8693 91.023 18.9955 91.4869 19.4585C91.9507 19.9215 97.4511 21.3986 99.2271 27.2675C99.8235 29.2385 100.875 30.8126 98.6351 33.3877C97.9591 34.1638 97.6499 35.782 96.5631 37.0166C94.9682 38.8245 93.5986 39.552 93.687 40.0326C93.899 41.1967 97.2744 42.3784 97.1727 48.2914C97.0711 54.1999 91.1467 55.9328 90.347 56.0166C89.543 56.1004 86.499 55.7697 86.2428 56.1885C85.9909 56.6074 86.7066 61.127 86.1588 62.9834C85.611 64.8397 83.8306 66.1493 83.8306 66.6123C83.8306 67.0753 84.7274 69.3152 83.4109 70.4969C82.0943 71.6786 76.7795 71.467 75.0168 70.4969L70.4663 68.0189V68.0233ZM9.79921 30.4378C11.8845 31.2139 18.2728 30.9405 19.5894 31.5402C21.2107 32.281 22.9558 33.8992 23.4197 33.6038C23.9057 33.2951 21.1798 29.1724 20.4155 28.0303C19.6556 26.8927 14.9594 21.7823 11.1511 21.9498C7.34284 22.1174 5.56682 24.397 4.21494 26.3415C2.86305 28.2861 2.60681 29.7191 2.98675 29.9308C3.36669 30.1424 4.10891 29.5075 4.73625 29.384C6.21626 29.0842 7.93484 29.75 9.79921 30.4378ZM13.5765 40.0062C15.6 40.2972 21.8955 38.4144 23.4771 38.4144C25.0588 38.4144 27.1396 39.552 27.4798 39.0317C27.6963 38.6966 25.8452 37.2327 24.1531 35.8217C22.461 34.4151 18.5997 32.9644 16.0197 32.8365C14.0404 32.7395 10.5061 34.1594 8.53126 34.274C6.55644 34.3886 4.50652 32.1487 4.09123 32.4044C3.37111 32.841 5.51381 38.8509 13.581 40.0018M23.2872 45.0593C23.3711 44.7903 22.9558 44.6581 22.8675 44.9226C22.7128 45.3591 22.4433 45.7957 22.165 46.2013C20.1814 48.9395 17.3362 51.4485 14.0183 52.2466C11.3455 52.8771 8.01436 51.7659 6.82152 49.1909C5.81423 46.6246 7.37376 43.4014 9.83455 42.2814C12.4146 41.0688 15.8164 43.1104 14.6059 46.1043C14.3364 46.876 13.6958 47.6652 12.8873 47.7843C12.1451 47.8593 11.1423 47.7887 11.0539 46.8363C11.0274 46.51 11.1158 46.0735 11.2041 45.4826C11.2439 45.3018 11.0716 45.1299 10.8904 45.1695C9.88757 45.3415 9.12768 46.3998 9.18953 47.4712C9.26464 49.5877 11.964 50.3549 13.5633 49.3188C14.6501 48.6441 15.2112 47.577 15.6353 46.4659C16.5056 44.151 15.1272 41.6553 12.7371 41.0953C10.5414 40.4471 8.16015 41.5847 6.85244 43.3529C5.14712 45.5047 4.70533 48.9484 6.80385 51.0031C8.70356 52.9477 11.5929 53.9177 14.2392 53.1373C17.9326 52.1363 21.8734 48.5559 23.2872 45.0549M21.0031 61.374C21.7409 60.5803 22.4478 59.7425 22.8365 58.7504C23.782 56.7882 23.2209 54.2969 24.4447 52.5067C26.6315 49.4069 29.8964 47.0259 33.3866 45.5355C33.6516 45.4341 33.5147 45.0505 33.254 45.1166C31.1776 45.6678 29.1542 46.4042 27.144 47.2772C25.0809 48.2252 22.9116 49.2614 21.2903 50.9238C18.5953 53.5076 16.1036 55.8887 16.6779 59.9145C16.7442 61.0653 16.8502 62.2117 17.6322 63.583C17.7162 63.7286 17.8973 63.7903 18.0519 63.7197C19.4966 63.0804 20.2609 62.225 21.0075 61.374M14.1332 19.9083C14.8003 20.4374 16.3598 23.1139 20.5039 25.8168C22.2578 26.9589 21.8602 28.9916 22.514 29.0842C23.19 29.1812 23.2562 24.6572 22.704 22.4216C22.1562 20.1817 20.23 17.3553 17.588 17.0157C15.463 16.7468 14.4778 17.5008 13.8858 17.7124C13.2938 17.9241 12.0258 18.1754 12.0038 18.5767C11.9596 19.313 12.9359 18.9559 14.1332 19.9083ZM76.9474 29.0798C77.6013 28.9872 77.2037 26.9589 78.9576 25.8124C83.1016 23.1095 84.6656 20.4374 85.3283 19.9039C86.5299 18.9515 87.5019 19.3042 87.4577 18.5722C87.4356 18.171 86.1677 17.9197 85.5757 17.708C84.9837 17.4964 83.9985 16.738 81.8734 17.0113C79.2315 17.3509 77.3053 20.1773 76.7575 22.4172C76.2096 24.6528 76.2715 29.1768 76.9474 29.0798ZM40.1725 11.7069C40.8617 11.6495 41.5907 11.1469 41.4007 10.5384C41.0959 9.5595 40.2741 9.69619 40.146 9.94753C40.0002 10.2385 40.5834 10.4326 40.6187 10.7544C40.685 11.3718 39.9826 11.3762 39.7307 11.2924C39.2227 11.1248 38.8427 10.847 39.0018 10.0049C39.1564 9.18471 40.1063 9.01715 40.5701 9.09652C41.0473 9.1803 41.6393 9.43163 43.0309 10.6883C44.48 12.0023 45.5492 13.0958 47.1705 13.0826C48.1336 13.0738 48.9024 12.8092 49.4193 12.355C49.3177 12.5799 49.1542 12.8401 48.8714 13.0826C48.465 13.4265 48.4252 14.2863 48.9996 15.1506C49.5695 16.0148 49.8699 15.8252 49.8257 15.5959C49.7771 15.3358 49.1674 15.1153 49.4281 14.498C49.5916 14.1144 50.0599 14.0306 50.1615 14.0174C50.2631 14.0306 50.7314 14.1144 50.8904 14.498C51.1511 15.1153 50.5458 15.3358 50.4928 15.5959C50.4486 15.8296 50.7446 16.0192 51.319 15.1506C51.8889 14.2863 51.8535 13.4265 51.4471 13.0826C51.1599 12.8401 50.9965 12.5799 50.8993 12.355C51.4162 12.8092 52.1849 13.0738 53.148 13.0826C54.7694 13.0958 55.8385 11.9979 57.2876 10.6883C58.6793 9.42722 59.2668 9.1803 59.7484 9.09652C60.2123 9.01274 61.1666 9.1803 61.3168 10.0049C61.4758 10.8514 61.0959 11.1248 60.5878 11.2924C60.3316 11.3762 59.6335 11.3718 59.6998 10.7544C59.7351 10.4326 60.3183 10.243 60.1725 9.94753C60.0444 9.69619 59.2227 9.5595 58.9178 10.5384C58.7279 11.1469 59.4524 11.6495 60.146 11.7069C60.7734 11.7598 62.1076 11.3453 61.6702 9.81966C61.3963 8.86282 60.4553 8.69086 59.7528 8.74818C59.0813 8.8055 58.0652 9.49336 57.2037 10.2959C56.5321 10.922 54.7826 12.5667 53.254 12.5491C51.319 12.5226 50.8374 11.3188 50.8551 10.4987C50.8816 9.35667 51.8491 8.88487 51.8491 8.88487C51.8491 8.88487 51.4029 9.93871 51.6503 10.7853C51.911 11.6804 52.3572 11.9891 53.1215 12.0023C53.8991 12.0155 54.5706 11.2659 54.6589 10.8911C54.8136 10.2297 54.8622 10.0357 53.7577 10.4634C53.1038 10.7148 53.7444 11.5084 52.8564 11.5305C52.5693 11.5393 51.9772 11.0234 52.0303 10.168C52.0921 9.15825 52.5869 8.6644 53.7621 8.59826C54.9196 8.53212 55.812 9.36549 56.0815 9.57714C56.351 9.78879 56.7663 9.77997 56.4968 9.44486C56.2273 9.10534 55.3305 8.41748 54.5441 8.12205C54.1553 7.97654 53.7002 7.90599 53.2319 7.91922C52.3793 6.51704 51.6194 6.15106 51.6459 5.7895C51.6901 5.28242 51.9552 5.76304 52.2512 5.97028C52.5118 6.15547 52.8829 6.92711 54.0272 7.44742C54.2216 7.5356 54.3585 7.2975 54.2746 7.15199C53.7798 6.28335 53.7002 5.94382 53.634 5.37943C53.6119 5.19423 53.5059 5.03109 53.3424 4.9429C52.1981 4.34763 51.7784 2.98073 51.3632 2.98073C51.1069 2.98073 51.023 3.66859 50.9876 4.30795C50.9523 4.95172 50.9744 5.55139 51.1864 5.86887C51.6061 6.495 52.556 7.08144 52.8211 7.95009C52.4765 7.99418 52.1319 8.08237 51.8094 8.22347C51.0495 8.54976 50.5105 9.03479 50.3117 9.66974C50.241 9.89902 50.1968 10.1195 50.1747 10.3311C50.1526 10.1195 50.1085 9.89902 50.0378 9.66974C49.839 9.03479 49.3 8.54976 48.5401 8.22347C48.2176 8.08678 47.873 7.99418 47.5284 7.95009C47.7935 7.08144 48.7477 6.495 49.163 5.86887C49.3751 5.55139 49.3928 4.95172 49.3618 4.30795C49.3265 3.66859 49.2425 2.98073 48.9863 2.98073C48.571 2.98073 48.1513 4.34763 47.0071 4.9429C46.8392 5.03109 46.7376 5.19423 46.7155 5.37943C46.6448 5.94823 46.5697 6.28775 46.0705 7.15199C45.9865 7.2975 46.1235 7.5356 46.3179 7.44742C47.4621 6.92711 47.8332 6.15547 48.0939 5.97028C48.3899 5.75863 48.6594 5.28242 48.6991 5.7895C48.7301 6.15547 47.9702 6.51704 47.1175 7.91922C46.6492 7.90599 46.1898 7.97654 45.8054 8.12205C45.019 8.41748 44.1222 9.10534 43.8527 9.44486C43.5832 9.78438 43.9985 9.78879 44.268 9.57714C44.5374 9.36549 45.4299 8.53212 46.5874 8.59826C47.767 8.6644 48.2573 9.15825 48.3236 10.168C48.3766 11.0234 47.7846 11.5349 47.4975 11.5305C46.6095 11.5084 47.2501 10.7148 46.5962 10.4634C45.4873 10.0357 45.5403 10.2297 45.6949 10.8911C45.7833 11.2659 46.4548 12.0155 47.2324 12.0023C48.0011 11.9891 48.4429 11.6804 48.7036 10.7853C48.951 9.94312 48.5048 8.88487 48.5048 8.88487C48.5048 8.88487 49.4723 9.35667 49.4988 10.4987C49.5165 11.3188 49.0349 12.5226 47.0998 12.5491C45.5712 12.5667 43.8217 10.922 43.1502 10.2959C42.2887 9.49336 41.2726 8.80109 40.6011 8.74818C39.8986 8.69086 38.9576 8.86282 38.6837 9.81966C38.2463 11.3453 39.5805 11.7554 40.2079 11.7069M78.2021 50.937C76.5807 49.2747 74.4071 48.2385 72.3484 47.2904C70.3382 46.4174 68.3148 45.681 66.2383 45.1299C65.9777 45.0637 65.8407 45.4517 66.1058 45.5487C69.596 47.0391 72.8652 49.4202 75.0477 52.52C76.2715 54.3102 75.7104 56.8014 76.6558 58.7636C77.0446 59.7513 77.7515 60.5891 78.4893 61.3872C79.2359 62.2382 80.0002 63.0936 81.4449 63.733C81.5995 63.8035 81.7807 63.7374 81.8646 63.5963C82.6466 62.2294 82.7526 61.0785 82.8189 59.9277C83.3888 55.9019 80.8971 53.5253 78.2021 50.937ZM34.5352 16.4734V17.2053C35.759 17.2053 36.6558 17.32 37.2258 17.5493C37.7913 17.7786 38.1579 18.1975 38.3302 18.8104C38.4981 19.4233 38.5821 20.2919 38.5821 21.4251V43.1721C38.5821 43.1721 31.0937 41.3422 27.9348 36.7256C25.4608 33.1055 26.8922 29.0798 27.5019 28.6609C29.1807 27.51 31.7652 26.5797 33.6605 27.9421C35.3305 29.1459 36.4747 32.9247 33.9521 34.3534C32.0347 35.4425 30.8728 33.9786 30.6342 32.7043C30.484 31.8973 30.886 31.4608 31.2041 31.2271C31.8801 30.7333 32.2865 31.3197 32.4456 31.1963C32.5869 31.086 32.662 30.5393 32.0656 30.0145C30.8816 28.9739 29.2823 30.213 28.9775 31.2404C28.5754 32.594 29.0703 34.371 30.1703 35.0412C31.2704 35.7114 36.2361 36.4963 36.2229 31.1566C36.2229 29.6177 35.1184 27.4615 32.3925 26.3019C35.1803 26.0505 37.4908 24.4014 37.3185 22.2056C37.1462 20.0097 35.1626 19.798 34.2083 20.1376C32.6665 20.6887 32.3925 22.9022 33.3468 23.5416C34.7031 24.4543 35.4321 23.2197 35.4321 22.964C35.4321 22.7082 34.6899 23.2462 34.142 22.8802C33.8902 22.7126 33.5942 21.2531 34.4822 20.918C35.5558 20.508 36.3422 21.2972 36.5145 22.1438C36.6824 22.9904 35.6883 24.7409 34.5043 25.0761C33.3203 25.4156 29.6843 26.174 27.736 27.2719C30.188 24.6528 32.4721 22.038 32.1363 18.4929C31.7961 14.9477 28.7698 13.8498 26.901 13.8498C25.0323 13.8498 22.9161 15.2873 23 18.1578C23.0839 21.0283 24.6081 21.8749 25.7921 21.8749C26.9761 21.8749 28.5224 21.262 28.3501 18.9823C28.1822 16.7027 29.4281 17.3244 28.92 16.6409C28.412 15.9575 26.5741 17.2935 26.742 18.5634C26.9099 19.8289 27.8111 20.7461 26.044 21.0327C24.48 21.284 23.6936 19.5908 23.7687 17.8667C23.8659 15.7106 25.6198 14.5289 26.9717 14.6126C28.3236 14.6964 31.2041 15.7106 31.2041 18.7486C31.2041 24.6395 25.7833 26.1387 25.5492 30.3188C25.3636 33.6523 26.2383 35.8349 28.2087 38.2027C29.998 40.3545 32.5074 41.7655 34.6059 42.643C34.1111 42.8634 33.0906 43.3617 31.2041 42.9428C30.378 42.7576 28.5268 40.2796 25.2841 40.2796C22.2666 40.2796 19.8633 43.1015 20.1504 43.4322C20.3492 43.6571 21.3742 42.7444 22.4831 42.934C24.29 43.2426 24.2635 45.7957 28.5799 45.5972C31.8624 45.4473 34.5971 43.494 34.9461 42.7841C36.9872 43.6042 38.5821 43.9129 38.5821 43.9129V44.2656C33.4219 45.4429 28.655 49.0366 25.5712 53.3974C24.4712 54.9583 23.8703 57.1366 23.6892 58.6798C23.5257 59.9277 23.6141 61.0521 23.5964 62.1676C23.6494 64.703 21.7895 66.5285 19.5982 67.7587C19.3994 67.8689 19.4877 68.1864 19.7131 68.182C22.8189 68.2834 25.9379 66.7666 28.0232 64.2753C30.0334 62.0398 30.8242 59.0414 30.9346 56.4266C30.9258 55.655 31.076 54.7555 31.3278 53.9486C32.2821 49.9934 34.9903 46.8627 38.5821 44.8388V45.6898C38.5423 45.7031 38.4937 45.7295 38.4495 45.7516C36.7575 46.6423 35.4321 48.0224 34.1906 49.645C33.581 50.4652 32.9845 51.3867 32.6355 52.4406C32.3307 53.3269 32.2556 54.2925 32.2026 55.2229C31.9949 58.5211 31.9066 61.4533 29.6976 64.2533C29.5606 64.4032 29.6843 64.6633 29.8876 64.6501C31.9773 64.5707 33.8372 63.0054 34.924 61.2946C36.3289 59.0061 37.049 56.409 36.8458 53.8119C36.8281 53.6443 36.753 53.2034 36.7354 53.0314C36.2494 50.6945 37.0756 48.1459 38.5821 46.2763V66.3389C38.5821 66.674 38.56 67.0885 38.5114 67.5779C38.4672 68.0674 38.3347 68.4995 38.1226 68.8743C37.9061 69.2491 37.5571 69.4343 37.0667 69.4343C36.7 69.4343 36.404 69.2447 36.1831 68.8611C35.9622 68.4774 35.7369 68.0321 35.516 67.5206C35.2951 67.0091 35.0124 66.5638 34.6766 66.1802C34.3408 65.7965 33.8814 65.6069 33.2982 65.6069C31.9021 65.6069 31.2085 66.3257 31.2085 67.7631C31.2085 68.5127 31.4206 69.1256 31.8535 69.5974C32.2821 70.0692 32.8167 70.4176 33.4617 70.6424C34.1067 70.8629 34.7385 70.9776 35.3702 70.9776C36.7795 70.9776 37.9503 70.6733 38.8869 70.0692C39.8235 69.4651 40.5569 68.6715 41.0915 67.6838C41.626 66.6961 42.0104 65.6069 42.2401 64.4164C42.4699 63.2215 42.5847 62.0442 42.5847 60.8845V21.4295C42.5847 20.2831 42.6687 19.4012 42.8365 18.7927C43.0044 18.1798 43.3755 17.7653 43.9499 17.5449C44.5242 17.3244 45.4078 17.2098 46.605 17.2098V16.4778H34.5397L34.5352 16.4734ZM86.7199 41.1085C84.3298 41.6685 82.9514 44.1642 83.8217 46.4791C84.2503 47.5903 84.8069 48.6573 85.8937 49.332C87.493 50.3682 90.1968 49.601 90.2675 47.4845C90.3294 46.413 89.5695 45.3547 88.5666 45.1828C88.3855 45.1431 88.2176 45.315 88.2529 45.4958C88.3413 46.0867 88.4252 46.5232 88.4031 46.8495C88.3148 47.8019 87.3075 47.8725 86.5697 47.7975C85.7612 47.6785 85.1206 46.8892 84.8511 46.1175C83.6362 43.1236 87.038 41.0821 89.6225 42.2946C92.0833 43.4146 93.6428 46.6334 92.6355 49.2041C91.4427 51.7792 88.1116 52.8903 85.4387 52.2598C82.1208 51.4617 79.2757 48.9484 77.292 46.2146C77.0137 45.8045 76.7442 45.3724 76.5896 44.9358C76.5012 44.6713 76.0859 44.8036 76.1699 45.0725C77.5836 48.578 81.5244 52.1584 85.2178 53.1549C87.8642 53.9398 90.7535 52.9653 92.6532 51.0208C94.7561 48.966 94.3099 45.5223 92.6046 43.3705C91.3013 41.6024 88.9156 40.4692 86.7199 41.1129M95.2333 26.346C93.8814 24.4058 92.1054 22.1218 88.2971 21.9542C84.4888 21.7867 79.797 26.8927 79.0327 28.0347C78.2728 29.1768 75.5425 33.2995 76.0285 33.6082C76.4924 33.9036 78.2375 32.2854 79.8588 31.5446C81.1754 30.9449 87.5637 31.2139 89.649 30.4423C91.5134 29.75 93.2319 29.0886 94.712 29.3884C95.3393 29.5163 96.0815 30.1468 96.4615 29.9352C96.8414 29.7235 96.5896 28.2905 95.2333 26.346ZM95.3614 32.4132C94.9461 32.1619 92.8962 34.3975 90.9214 34.2828C88.9465 34.1682 85.4122 32.7484 83.433 32.8454C80.8529 32.9732 76.9916 34.4195 75.2995 35.8305C73.6075 37.2371 71.7564 38.7054 71.9728 39.0405C72.3086 39.5608 74.3983 38.4232 75.9755 38.4232C77.5527 38.4232 83.8527 40.3016 85.8761 40.015C93.9432 38.8597 96.0859 32.8542 95.3658 32.4177M43.8703 27.4615C45.0941 27.4615 45.9909 27.5762 46.5609 27.8055C47.1264 28.0347 47.493 28.4536 47.6653 29.0665C47.8332 29.6794 47.9172 30.5481 47.9172 31.6813V76.5907C47.9172 76.9258 47.8951 77.3403 47.8509 77.8297C47.8067 78.3191 47.6742 78.7513 47.4577 79.1261C47.2456 79.5009 46.8922 79.6861 46.4018 79.6861C46.0351 79.6861 45.7391 79.4964 45.5182 79.1128C45.2973 78.7292 45.072 78.2839 44.8511 77.7724C44.6302 77.2609 44.3475 76.8111 44.0117 76.4319C43.6759 76.0483 43.2165 75.8587 42.6333 75.8587C41.2417 75.8587 40.5436 76.5774 40.5436 78.0149C40.5436 78.7645 40.7557 79.3774 41.1887 79.8492C41.6172 80.321 42.1518 80.6693 42.7968 80.8942C43.4418 81.1147 44.0736 81.2293 44.7053 81.2293C46.1147 81.2293 47.2854 80.9295 48.222 80.3254C49.1586 79.7213 49.892 78.9276 50.4266 77.9399C50.9611 76.9522 51.3455 75.8631 51.5752 74.6726C51.805 73.4777 51.9198 72.3048 51.9198 71.1407V31.6725C51.9198 30.526 52.0038 29.6442 52.1716 29.0357C52.3395 28.4228 52.7106 28.0083 53.285 27.7878C53.8593 27.5674 54.7429 27.4527 55.9401 27.4527V26.7208H43.8748V27.4527L43.8703 27.4615ZM79.8588 67.7675C77.6631 66.5373 75.8032 64.7118 75.8562 62.1765C75.8385 61.0609 75.9269 59.9409 75.7634 58.6887C75.5823 57.1498 74.9814 54.9671 73.8814 53.4062C70.9214 49.2217 66.4151 45.7383 61.4935 44.4244V43.7762C62.1341 43.613 63.2297 43.3044 64.5065 42.7885C64.8555 43.4984 67.5902 45.4517 70.8728 45.6017C75.1891 45.8001 75.1626 43.2471 76.9695 42.9384C78.0784 42.7488 79.1034 43.6615 79.3022 43.4367C79.5938 43.106 77.186 40.284 74.1685 40.284C70.9258 40.284 69.0747 42.762 68.2485 42.9472C66.3576 43.3705 65.3371 42.8723 64.8423 42.6474C66.9408 41.7655 69.4502 40.3589 71.2395 38.2072C73.2099 35.8349 74.0846 33.6567 73.8991 30.3232C73.6649 26.1431 68.2485 24.6395 68.2485 18.753C68.2485 15.7106 71.1246 14.7008 72.4765 14.617C73.8284 14.5333 75.5867 15.715 75.6839 17.8712C75.759 19.5908 74.9726 21.2884 73.4087 21.0371C71.6415 20.7505 72.5427 19.8333 72.7106 18.5678C72.8785 17.3023 71.0406 15.9619 70.5326 16.6454C70.0245 17.3288 71.2748 16.7071 71.1025 18.9867C70.9346 21.2664 72.4765 21.8793 73.6605 21.8793C74.8445 21.8793 76.3687 21.0327 76.4526 18.1622C76.5366 15.2917 74.4204 13.8542 72.5516 13.8542C70.6828 13.8542 67.6521 14.9522 67.3163 18.4973C66.9761 22.0424 69.2602 24.6616 71.7166 27.2763C69.7727 26.1784 66.1323 25.42 64.9483 25.0805C63.7643 24.7409 62.7703 22.9904 62.9382 22.1482C63.106 21.3061 63.8924 20.5168 64.9704 20.9224C65.8584 21.262 65.5624 22.7171 65.3106 22.8846C64.7628 23.2506 64.0205 22.7171 64.0205 22.9684C64.0205 23.2197 64.7539 24.4587 66.1058 23.546C67.0601 22.9022 66.7906 20.6887 65.2443 20.142C64.2945 19.8025 62.3064 20.0141 62.1341 22.21C61.9662 24.4058 64.2724 26.0505 67.0601 26.3063C64.3298 27.4659 63.2297 29.6221 63.2297 31.161C63.2165 36.5007 68.1822 35.7115 69.2823 35.0456C70.3824 34.3754 70.8772 32.6028 70.4752 31.2448C70.1703 30.2218 68.571 28.9783 67.387 30.019C66.7906 30.5437 66.8657 31.0904 67.0071 31.2007C67.1661 31.3285 67.5726 30.7377 68.2485 31.2315C68.571 31.4652 68.9686 31.9018 68.8184 32.7087C68.5799 33.983 67.4179 35.4469 65.5005 34.3578C62.9779 32.9291 64.1222 29.1503 65.7921 27.9466C67.6874 26.5797 70.2719 27.51 71.9507 28.6653C72.5604 29.0842 73.9918 33.1099 71.5178 36.73C68.9024 40.5573 63.3225 42.4666 61.4891 43.0089V15.0977H60.4243L53.74 17.783L54.0581 18.634C55.304 18.2327 56.1566 18.2415 56.5587 18.5237C57.0225 18.85 57.4908 20.0758 57.4908 22.4216V62.5954C57.4908 63.7594 57.3716 65.2277 57.5438 66.1758C57.7603 67.3707 58.1093 68.0894 58.8162 68.8434C60.3448 70.4793 62.3329 70.8938 63.7422 70.8938C63.7422 70.7086 63.7422 70.6116 63.7422 70.2588C63.1856 70.1883 62.3947 69.8223 62.006 69.4519C61.5598 69.0286 61.4935 68.0012 61.4935 67.2296V47.1405C62.5936 48.891 63.1325 51.034 62.7173 53.027C62.6996 53.2034 62.6245 53.6399 62.6068 53.8075C62.3992 56.4046 63.1193 59.0017 64.5286 61.2902C65.6154 63.001 67.4754 64.5663 69.5651 64.6457C69.7683 64.6589 69.892 64.3988 69.755 64.2489C67.5461 61.4489 67.4577 58.5167 67.2501 55.2185C67.2015 54.2881 67.1219 53.3269 66.8171 52.4362C66.4681 51.3867 65.8717 50.4608 65.2576 49.6406C64.1354 48.1767 62.947 46.9156 61.4846 46.0294V45.2004C64.7672 47.2287 67.2191 50.2227 68.116 53.9442C68.3678 54.7511 68.518 55.6506 68.5092 56.4222C68.6196 59.037 69.4104 62.0354 71.4206 64.2709C73.5103 66.7622 76.6249 68.2746 79.7307 68.1776C79.956 68.1776 80.0444 67.8601 79.8456 67.7543" fill="white"/>
</g>
<defs>
<clipPath id="clip0_172_293">
<rect width="100" height="100" fill="white"/>
</clipPath>
</defs>
</svg>
