<svg width="28" height="28" viewBox="0 0 28 28" fill="none" xmlns="http://www.w3.org/2000/svg">
<path d="M26.4625 21.9125C26.4625 22.3625 26.3625 22.825 26.15 23.275C25.9375 23.725 25.6625 24.15 25.3 24.55C24.6875 25.225 24.0125 25.7125 23.25 26.025C22.5 26.3375 21.6875 26.5 20.8125 26.5C19.5375 26.5 18.175 26.2 16.7375 25.5875C15.3 24.975 13.8625 24.15 12.4375 23.1125C11 22.0625 9.6375 20.9 8.3375 19.6125C7.05 18.3125 5.8875 16.95 4.85 15.525C3.825 14.1 3 12.675 2.4 11.2625C1.8 9.8375 1.5 8.475 1.5 7.175C1.5 6.325 1.65 5.5125 1.95 4.7625C2.25 4 2.725 3.3 3.3875 2.675C4.1875 1.8875 5.0625 1.5 5.9875 1.5C6.3375 1.5 6.6875 1.575 7 1.725C7.325 1.875 7.6125 2.1 7.8375 2.425L10.7375 6.5125C10.9625 6.825 11.125 7.1125 11.2375 7.3875C11.35 7.65 11.4125 7.9125 11.4125 8.15C11.4125 8.45 11.325 8.75 11.15 9.0375C10.9875 9.325 10.75 9.625 10.45 9.925L9.5 10.9125C9.3625 11.05 9.3 11.2125 9.3 11.4125C9.3 11.5125 9.3125 11.6 9.3375 11.7C9.375 11.8 9.4125 11.875 9.4375 11.95C9.6625 12.3625 10.05 12.9 10.6 13.55C11.1625 14.2 11.7625 14.8625 12.4125 15.525C13.0875 16.1875 13.7375 16.8 14.4 17.3625C15.05 17.9125 15.5875 18.2875 16.0125 18.5125C16.075 18.5375 16.15 18.575 16.2375 18.6125C16.3375 18.65 16.4375 18.6625 16.55 18.6625C16.7625 18.6625 16.925 18.5875 17.0625 18.45L18.0125 17.5125C18.325 17.2 18.625 16.9625 18.9125 16.8125C19.2 16.6375 19.4875 16.55 19.8 16.55C20.0375 16.55 20.2875 16.6 20.5625 16.7125C20.8375 16.825 21.125 16.9875 21.4375 17.2L25.575 20.1375C25.9 20.3625 26.125 20.625 26.2625 20.9375C26.3875 21.25 26.4625 21.5625 26.4625 21.9125Z" stroke="white" stroke-width="1.5" stroke-miterlimit="10"/>
</svg>
