<svg width="25" height="25" viewBox="0 0 25 25" fill="none" xmlns="http://www.w3.org/2000/svg">
<path d="M6.95747 0.0465584C4.28142 0.197975 2.78225 0.681536 1.73723 1.73169C0.66779 2.7965 0.208761 4.2423 0.0476121 7.04598C-0.0158707 8.18405 -0.0158707 16.81 0.0476121 17.9481C0.208761 20.7517 0.66779 22.1975 1.73723 23.2624C2.80179 24.3321 4.25701 24.7912 7.07955 24.9524C8.18806 25.0159 16.8119 25.0159 17.9205 24.9524C20.7479 24.7912 22.1933 24.3321 23.2628 23.2624C24.3322 22.1927 24.7912 20.7469 24.9524 17.9188C25.0159 16.81 25.0159 8.18405 24.9524 7.07528C24.7912 4.24719 24.3322 2.80139 23.2628 1.73169C22.1933 0.661999 20.7332 0.197975 17.9205 0.0416737C16.8754 -0.0169411 7.98784 -0.0120564 6.95747 0.0465584ZM6.92817 7.85191C7.27 7.92029 7.38231 8.0766 7.73879 9.00464C8.32967 10.5481 9.2282 12.1844 9.88744 12.9269C10.1804 13.259 10.493 13.4446 10.6834 13.4006C10.9373 13.3469 10.952 13.2443 10.9764 11.6569C11.0057 9.62985 10.9471 9.28794 10.4539 8.64319C10.2195 8.33059 10.1951 8.15475 10.3709 7.97891C10.5369 7.81772 10.7322 7.79818 12.3047 7.81772C13.7697 7.83237 13.8478 7.84703 13.9748 8.06683C14.0236 8.14986 14.0431 8.68227 14.0529 10.2502C14.0627 11.5885 14.0822 12.3749 14.1164 12.4579C14.3264 12.9855 15.1516 12.3407 16.0892 10.9096C16.4945 10.2941 16.978 9.41005 17.2856 8.736C17.7056 7.80795 17.6519 7.83237 19.151 7.83237C20.2498 7.83237 20.3133 7.83726 20.4451 7.93495C20.699 8.12544 20.6502 8.46735 20.2351 9.28306C19.9031 9.94734 19.3561 10.8412 18.5797 11.9939C18.0718 12.7461 17.9693 12.9269 17.9693 13.0783C17.9693 13.3127 18.023 13.386 18.6969 14.0845C20.7283 16.1848 21.3632 17.318 20.6795 17.6062C20.4256 17.7087 18.3892 17.7039 18.1207 17.5964C17.9839 17.5427 17.6568 17.2349 16.9731 16.5267C15.6497 15.1542 15.0686 14.7292 14.5168 14.7243C14.0871 14.7243 14.092 14.7048 14.0627 16.0529C14.0334 17.3571 14.0187 17.4206 13.6818 17.5622C13.4083 17.6794 12.5293 17.7039 11.9628 17.6062C10.1463 17.2887 8.54942 16.1848 7.20651 14.314C6.48867 13.3176 5.71223 12.0086 5.23855 10.9975C4.76487 9.97665 4.34491 8.72623 4.34491 8.31594C4.34491 8.09613 4.52071 7.90076 4.76487 7.8568C5.02857 7.80307 6.66447 7.80307 6.92817 7.85191Z" fill="white"/>
</svg>
